<svg width="1345" height="228" viewBox="0 0 1345 228" fill="none" xmlns="http://www.w3.org/2000/svg">
<path d="M43.8514 102.243V185.729C43.8514 192.774 44.9081 197.618 47.0214 200.26C49.3109 202.725 53.4495 203.958 59.4372 203.958C64.7205 203.958 70.356 203.254 76.3438 201.845V224.301C68.4188 226.063 61.3744 226.943 55.2106 226.943C41.8262 226.943 32.4043 224.213 26.9449 218.753C21.6616 213.293 19.0199 204.134 19.0199 191.277V102.243H0V79.2584H19.0199V29.0614H43.8514V79.2584H77.6646V102.243H43.8514Z" fill="#2C2C2C" fill-opacity="0.5"/>
<path d="M157.455 77.409C172.953 77.409 184.752 80.051 192.853 85.3349C200.954 90.4426 206.326 97.3998 208.967 106.206C211.609 114.837 212.93 125.757 212.93 138.966V223.509H188.098V208.978C181.406 215.319 174.714 219.898 168.022 222.716C161.329 225.534 154.109 226.943 146.36 226.943C137.202 226.943 128.925 225.006 121.528 221.131C114.132 217.08 108.232 211.356 103.829 203.958C99.6027 196.385 97.4894 187.49 97.4894 177.275C97.4894 161.423 102.42 149.182 112.283 140.552C122.145 131.745 135.441 127.342 152.172 127.342C165.38 127.342 177.267 130.248 187.834 136.06C187.658 127.43 186.777 120.561 185.192 115.453C183.607 110.345 180.349 106.47 175.418 103.829C170.487 101.01 163.179 99.6014 153.492 99.6014H133.944V77.409H157.455ZM149.794 205.543C155.782 205.543 162.034 204.134 168.55 201.316C175.242 198.498 181.758 194.271 188.098 188.635V155.346C178.236 150.415 167.493 147.949 155.87 147.949C146.536 147.949 138.699 150.239 132.359 154.818C126.019 159.221 122.849 166.707 122.849 177.275C122.849 187.138 125.491 194.359 130.774 198.939C136.234 203.342 142.574 205.543 149.794 205.543Z" fill="#2C2C2C" fill-opacity="0.5"/>
<path d="M291.164 226.943C277.956 226.943 268.446 224.301 262.634 219.017C256.822 213.733 253.917 204.839 253.917 192.334V0H278.748V185.729C278.748 192.774 279.805 197.618 281.918 200.26C284.208 202.725 288.434 203.958 294.598 203.958C299.529 203.958 303.932 203.43 307.806 202.373V225.094C300.762 226.327 295.214 226.943 291.164 226.943Z" fill="#2C2C2C" fill-opacity="0.5"/>
<path d="M355.181 152.44C355.533 168.644 359.583 181.59 367.332 191.277C375.081 200.964 387.409 205.808 404.315 205.808C417.171 205.808 431.26 202.197 446.582 194.976L454.243 215.583C438.217 223.861 420.87 228 402.202 228C386.704 228 373.496 224.742 362.577 218.225C351.658 211.708 343.381 202.637 337.746 191.013C332.11 179.388 329.292 165.826 329.292 150.327C329.292 133.947 332.198 120.032 338.01 108.584C343.998 96.9594 352.011 88.1529 362.049 82.1645C372.087 76.1761 383.358 73.1819 395.862 73.1819C415.058 73.1819 430.116 79.1703 441.034 91.1471C451.953 103.124 457.413 120.297 457.413 142.665V152.44H355.181ZM395.862 95.3743C374.024 95.3743 360.992 107.439 356.766 131.569H431.26C430.38 119.24 427.034 110.169 421.222 104.357C415.41 98.3685 406.957 95.3743 395.862 95.3743Z" fill="#2C2C2C" fill-opacity="0.5"/>
<path d="M562.276 74.2387C580.239 74.2387 593.536 78.9942 602.165 88.5052C610.97 98.0162 615.373 113.692 615.373 135.532V223.509H590.542V135.532C590.542 121.794 588.164 112.019 583.409 106.206C578.83 100.394 570.641 97.4878 558.842 97.4878C545.105 97.4878 531.369 103.476 517.632 115.453V223.509H492.8V77.409H517.632V92.9965C532.073 80.4913 546.954 74.2387 562.276 74.2387Z" fill="#2C2C2C" fill-opacity="0.5"/>
<path d="M691.366 102.243V185.729C691.366 192.774 692.423 197.618 694.536 200.26C696.826 202.725 700.964 203.958 706.952 203.958C712.235 203.958 717.871 203.254 723.859 201.845V224.301C715.934 226.063 708.889 226.943 702.725 226.943C689.341 226.943 679.919 224.213 674.46 218.753C669.176 213.293 666.535 204.134 666.535 191.277V102.243H647.515V79.2584H666.535V29.0614H691.366V79.2584H725.179V102.243H691.366Z" fill="#2C2C2C" fill-opacity="0.5"/>
<path d="M827.159 73.1819C846.884 73.1819 862.558 79.7868 874.181 92.9965C885.98 106.206 891.88 125.404 891.88 150.591C891.88 175.778 885.98 194.976 874.181 208.185C862.558 221.395 846.884 228 827.159 228C812.894 228 798.806 222.1 784.893 210.299V223.509H760.062V0H784.893V91.1471C798.982 79.1703 813.071 73.1819 827.159 73.1819ZM823.725 205.015C837.638 205.015 848.205 200.436 855.425 191.277C862.646 181.942 866.256 168.38 866.256 150.591C866.256 132.802 862.646 119.328 855.425 110.169C848.205 101.01 837.638 96.431 823.725 96.431C810.517 96.431 797.573 101.891 784.893 112.811V188.635C797.925 199.555 810.869 205.015 823.725 205.015Z" fill="#2C2C2C" fill-opacity="0.5"/>
<path d="M1052.09 77.409V223.509H1027.26V207.921C1012.82 220.426 997.938 226.679 982.617 226.679C964.654 226.679 951.269 221.924 942.464 212.413C933.834 202.902 929.519 187.314 929.519 165.65V77.409H954.351V165.65C954.351 179.388 956.64 189.163 961.219 194.976C965.974 200.788 974.251 203.694 986.051 203.694C999.787 203.694 1013.52 197.706 1027.26 185.729V77.409H1052.09Z" fill="#2C2C2C" fill-opacity="0.5"/>
<path d="M1203.37 201.052V223.509H1093.22V201.052L1170.09 100.13H1097.97V77.409H1197.56V100.13L1120.95 201.052H1203.37Z" fill="#2C2C2C" fill-opacity="0.5"/>
<path d="M1345 201.052V223.509H1234.84V201.052L1311.71 100.13H1239.6V77.409H1339.19V100.13L1262.58 201.052H1345Z" fill="#2C2C2C" fill-opacity="0.5"/>
</svg>
