<svg width="338" height="614" viewBox="0 0 338 614" fill="none" xmlns="http://www.w3.org/2000/svg">
<path d="M324.44 612.397C328.517 588.694 335.602 579.405 335.525 555.224C335.478 540.657 335.541 526.809 331.715 512.447C325.419 488.81 313.998 470.566 285.804 458.758C272.872 453.342 259.432 447.604 248.017 440.214C241.648 436.091 234.394 432.465 227.614 428.725C220.882 425.011 218.919 418.097 211.877 414.554C200.467 408.814 191.758 385.839 190.553 376.023C188.664 360.634 187.619 345.953 187.57 330.45C187.477 301.332 191.526 267.7 176.598 240.335C159.968 209.851 129.08 187.444 101.563 162.868C71.3027 135.842 63.83 97.2332 46.9958 64.7669C39.5756 50.4564 22.0429 38.4844 7.64918 28.1979C-5.1793 19.03 -28.9379 2.15872 -47.8563 2.21918" stroke="url(#paint0_linear_717_153)" stroke-opacity="0.08" stroke-width="3" stroke-linecap="round"/>
<path d="M-46.7137 124.489C-33.782 129.905 10.3506 154.464 21.7661 161.854C28.1351 165.977 35.3891 169.603 42.1689 173.343C48.9015 177.057 50.8638 183.971 57.906 187.514C69.3159 193.253 78.0249 216.229 79.2299 226.045C81.1192 241.434 82.1639 256.115 82.2135 271.618C82.3066 300.736 78.2576 334.368 93.1853 361.733C109.815 392.217 140.703 414.623 168.22 439.199C198.48 466.226 205.953 504.835 222.787 537.301C230.207 551.611 247.74 563.583 262.134 573.87C274.962 583.038 298.721 599.909 317.639 599.849" stroke="url(#paint1_linear_717_153)" stroke-opacity="0.08" stroke-width="3" stroke-linecap="round"/>
<path d="M-57.577 251.241C-51.208 255.365 -43.954 258.99 -37.1742 262.731C-30.4415 266.445 -28.4793 273.358 -21.437 276.901C-10.0272 282.641 -1.31817 305.617 -0.113145 315.432C1.77615 330.822 2.82087 345.503 2.87041 361.005C2.96348 390.124 -1.08552 423.755 13.8423 451.12C30.4717 481.604 61.3602 504.011 88.8768 528.587C119.137 555.614 126.56 578.795 143.395 611.262" stroke="url(#paint2_linear_717_153)" stroke-opacity="0.08" stroke-width="3" stroke-linecap="round"/>
<path d="M-46.5085 371.575C-44.6192 386.964 -43.5745 401.645 -43.5249 417.148C-43.4318 446.266 -47.4808 479.898 -32.5531 507.263C-15.9237 537.747 44.8998 584.151 70.5319 612.637" stroke="url(#paint3_linear_717_153)" stroke-opacity="0.08" stroke-width="3" stroke-linecap="round"/>
<path d="M309.414 611.874C313.491 588.17 317.606 589.747 317.529 565.567C317.482 550.999 317.545 537.151 313.719 522.789C307.423 499.153 296.002 480.908 267.808 469.1C254.876 463.685 241.436 457.947 230.021 450.556C223.652 446.433 216.398 442.807 209.618 439.067C202.885 435.353 200.923 428.439 193.881 424.897C182.471 419.157 173.762 396.181 172.557 386.365C170.668 370.976 169.623 356.295 169.574 340.792C169.48 311.674 173.529 278.043 158.602 250.677C141.972 220.193 111.084 197.787 83.5671 173.211C53.3066 146.184 45.8339 107.575 28.9997 75.1092C21.5795 60.7987 4.04677 48.8266 -10.3469 38.5402C-23.1754 29.3723 -46.934 12.501 -65.8524 12.5615" stroke="url(#paint4_linear_717_153)" stroke-opacity="0.08" stroke-width="2" stroke-linecap="round" stroke-dasharray="3 5"/>
<path d="M234.379 612.685C238.456 588.981 238.027 604.857 237.949 580.676C237.903 566.109 237.965 552.261 234.14 537.899C227.844 514.262 216.422 496.018 188.228 484.21C175.297 478.794 161.857 473.056 150.442 465.666C144.073 461.543 136.819 457.917 130.039 454.177C123.306 450.463 121.344 443.549 114.302 440.006C102.892 434.266 94.1828 411.291 92.9777 401.475C91.0885 386.086 90.0437 371.405 89.9942 355.902C89.9011 326.784 93.9501 293.152 79.0223 265.787C62.3929 235.303 31.5044 212.896 3.98782 188.32C-26.2728 161.294 -33.7454 122.685 -50.5796 90.219" stroke="url(#paint5_linear_717_153)" stroke-opacity="0.08" stroke-width="2" stroke-linecap="round" stroke-dasharray="3 5"/>
<path d="M128.375 612.452C122.078 588.815 117.556 587.753 89.3614 575.946C76.4298 570.53 62.9903 564.792 51.5748 557.402C45.2058 553.278 37.9518 549.653 31.172 545.913C24.4394 542.198 22.4771 535.285 15.4348 531.742C4.02498 526.002 -4.68402 503.027 -5.88905 493.211C-7.77834 477.821 -8.82306 463.14 -8.87261 447.638C-8.96568 418.519 -18.2093 346.662 -48.3047 331.902" stroke="url(#paint6_linear_717_153)" stroke-opacity="0.08" stroke-width="2" stroke-linecap="round" stroke-dasharray="3 5"/>
<path d="M207.996 610.484C207.87 571.059 185.352 548.778 154.491 536.049C140.336 530.211 125.624 524.025 113.129 516.058C106.158 511.613 98.2172 507.704 90.7961 503.672C83.4264 499.669 81.2789 492.215 73.5703 488.396C61.081 482.208 51.549 457.438 50.2305 446.855C48.1632 430.264 47.0204 414.436 46.967 397.722C46.8666 366.329 51.3006 330.07 34.9615 300.568C16.76 267.703 -17.0505 243.547 -47.1698 217.053" stroke="url(#paint7_linear_717_153)" stroke-opacity="0.08" stroke-width="2" stroke-linecap="round" stroke-dasharray="3 5"/>
<path d="M122.358 610.249C110.948 604.51 102.239 581.534 101.034 571.718C99.1447 556.329 98.1 541.648 98.0504 526.145C97.9573 497.027 102.006 463.395 87.0786 436.03C70.4492 405.546 39.5606 383.14 12.0441 358.564C-18.2165 331.537 -25.6891 292.928 -42.5234 260.462C-49.9436 246.151 -67.4763 234.179 -81.87 223.893C-94.6985 214.725 -118.457 197.854 -137.375 197.914" stroke="url(#paint8_linear_717_153)" stroke-opacity="0.08" stroke-width="2" stroke-linecap="round" stroke-dasharray="3 5"/>
<path d="M23.2122 614.502C6.58284 584.018 -24.3057 561.612 -51.8223 537.036" stroke="url(#paint9_linear_717_153)" stroke-opacity="0.08" stroke-width="2" stroke-linecap="round" stroke-dasharray="3 5"/>
<path d="M332.841 603.736C319.91 598.32 306.47 592.582 295.055 585.192C288.686 581.068 281.432 577.443 274.652 573.703C267.919 569.988 265.957 563.075 258.915 559.532C247.505 553.792 238.796 530.817 237.591 521.001C235.702 505.611 234.657 490.931 234.607 475.428C234.514 446.309 238.563 412.678 223.636 385.313C207.006 354.829 176.118 332.422 148.601 307.846C118.34 280.82 110.868 242.211 94.0336 209.745C86.6134 195.434 69.0807 183.462 54.687 173.176C41.8585 164.008 18.1 147.137 -0.818446 147.197" stroke="url(#paint10_linear_717_153)" stroke-opacity="0.08" stroke-width="2" stroke-linecap="round" stroke-dasharray="3 5"/>
<defs>
<linearGradient id="paint0_linear_717_153" x1="334.731" y1="306.68" x2="-46.8793" y2="307.9" gradientUnits="userSpaceOnUse">
<stop offset="0.0416667" stop-color="#F7577E"/>
<stop offset="0.265625" stop-color="#FB87A3"/>
<stop offset="0.505208" stop-color="#FD8EA9"/>
<stop offset="0.791667" stop-color="#F986A3"/>
</linearGradient>
<linearGradient id="paint1_linear_717_153" x1="-45.9522" y1="362.749" x2="316.878" y2="361.589" gradientUnits="userSpaceOnUse">
<stop offset="0.0416667" stop-color="#F7577E"/>
<stop offset="0.265625" stop-color="#FB87A3"/>
<stop offset="0.505208" stop-color="#FD8EA9"/>
<stop offset="0.791667" stop-color="#F986A3"/>
</linearGradient>
<linearGradient id="paint2_linear_717_153" x1="-57.0007" y1="431.571" x2="142.818" y2="430.932" gradientUnits="userSpaceOnUse">
<stop offset="0.0416667" stop-color="#F7577E"/>
<stop offset="0.265625" stop-color="#FB87A3"/>
<stop offset="0.505208" stop-color="#FD8EA9"/>
<stop offset="0.791667" stop-color="#F986A3"/>
</linearGradient>
<linearGradient id="paint3_linear_717_153" x1="-46.1226" y1="492.292" x2="70.1461" y2="491.92" gradientUnits="userSpaceOnUse">
<stop offset="0.0416667" stop-color="#F7577E"/>
<stop offset="0.265625" stop-color="#FB87A3"/>
<stop offset="0.505208" stop-color="#FD8EA9"/>
<stop offset="0.791667" stop-color="#F986A3"/>
</linearGradient>
<linearGradient id="paint4_linear_717_153" x1="316.717" y1="311.595" x2="-64.8927" y2="312.814" gradientUnits="userSpaceOnUse">
<stop offset="0.0416667" stop-color="#F7577E"/>
<stop offset="0.265625" stop-color="#FB87A3"/>
<stop offset="0.505208" stop-color="#FD8EA9"/>
<stop offset="0.791667" stop-color="#F986A3"/>
</linearGradient>
<linearGradient id="paint5_linear_717_153" x1="237.232" y1="350.987" x2="-49.7432" y2="351.905" gradientUnits="userSpaceOnUse">
<stop offset="0.0416667" stop-color="#F7577E"/>
<stop offset="0.265625" stop-color="#FB87A3"/>
<stop offset="0.505208" stop-color="#FD8EA9"/>
<stop offset="0.791667" stop-color="#F986A3"/>
</linearGradient>
<linearGradient id="paint6_linear_717_153" x1="127.925" y1="471.896" x2="-47.8555" y2="472.458" gradientUnits="userSpaceOnUse">
<stop offset="0.0416667" stop-color="#F7577E"/>
<stop offset="0.265625" stop-color="#FB87A3"/>
<stop offset="0.505208" stop-color="#FD8EA9"/>
<stop offset="0.791667" stop-color="#F986A3"/>
</linearGradient>
<linearGradient id="paint7_linear_717_153" x1="207.366" y1="413.362" x2="-46.5398" y2="414.174" gradientUnits="userSpaceOnUse">
<stop offset="0.0416667" stop-color="#F7577E"/>
<stop offset="0.265625" stop-color="#FB87A3"/>
<stop offset="0.505208" stop-color="#FD8EA9"/>
<stop offset="0.791667" stop-color="#F986A3"/>
</linearGradient>
<linearGradient id="paint8_linear_717_153" x1="121.698" y1="403.669" x2="-136.715" y2="404.495" gradientUnits="userSpaceOnUse">
<stop offset="0.0416667" stop-color="#F7577E"/>
<stop offset="0.265625" stop-color="#FB87A3"/>
<stop offset="0.505208" stop-color="#FD8EA9"/>
<stop offset="0.791667" stop-color="#F986A3"/>
</linearGradient>
<linearGradient id="paint9_linear_717_153" x1="23.088" y1="575.65" x2="-51.6981" y2="575.889" gradientUnits="userSpaceOnUse">
<stop offset="0.0416667" stop-color="#F7577E"/>
<stop offset="0.265625" stop-color="#FB87A3"/>
<stop offset="0.505208" stop-color="#FD8EA9"/>
<stop offset="0.791667" stop-color="#F986A3"/>
</linearGradient>
<linearGradient id="paint10_linear_717_153" x1="332.11" y1="374.936" x2="-0.0871727" y2="375.997" gradientUnits="userSpaceOnUse">
<stop offset="0.0416667" stop-color="#F7577E"/>
<stop offset="0.265625" stop-color="#FB87A3"/>
<stop offset="0.505208" stop-color="#FD8EA9"/>
<stop offset="0.791667" stop-color="#F986A3"/>
</linearGradient>
</defs>
</svg>
