<svg width="59" height="72" viewBox="0 0 59 72" fill="none" xmlns="http://www.w3.org/2000/svg">
<g clip-path="url(#clip0_1776_1161)">
<path d="M29.0088 58.9766C31.3179 60.9455 30.8865 62.9143 29.7442 64.7453C28.6558 66.4852 27.5503 68.2129 26.4472 69.9405C26.2575 70.2394 26.0495 70.5263 25.8246 70.7994C24.8833 71.9241 23.7213 72.2761 22.3462 71.7617C21.7344 71.5208 21.1521 71.2104 20.6107 70.8363C14.5168 66.7773 8.4294 62.7092 2.34858 58.6321C1.81247 58.2872 1.3188 57.8799 0.877809 57.4188C-0.124767 56.3187 -0.308604 55.0316 0.473356 53.7691C1.81421 51.6058 3.20654 49.4697 4.6675 47.3876C5.8098 45.7609 7.63111 44.9561 9.8005 46.2014C9.93394 46.2593 10.0706 46.3095 10.2099 46.3515C10.6192 43.6444 11.0801 40.9988 11.4085 38.3384C12.0165 33.4434 12.4675 28.5263 13.1441 23.6436C13.4554 21.3868 14.0608 19.1596 14.7006 16.9692C15.0136 15.9594 15.5348 15.027 16.2302 14.2326C17.3063 13.0021 18.7207 12.66 20.3337 13.2482C21.5593 13.6887 22.6575 14.2621 23.4689 15.5591C23.4958 15.1924 23.5228 15.0029 23.5203 14.8208C23.4983 12.2465 23.4566 9.66981 23.4566 7.09557C23.4334 6.19847 23.4867 5.30102 23.6159 4.41305C24.1062 1.51149 25.8981 0.0250204 28.9328 0.0127152C32.7911 -0.00451201 36.6494 0.0274799 40.5077 0.0496292C42.5538 0.0627548 44.5965 0.0914683 46.636 0.135767C47.2008 0.148776 47.7631 0.216357 48.3151 0.337573C51.3375 1.00451 52.926 2.97334 53.0387 6.25636C53.0951 7.88064 53.0387 9.50738 53.0387 11.2252C53.2667 11.0997 53.4138 10.9988 53.5756 10.9323C54.1786 10.6862 54.7718 10.3269 55.4018 10.2334C57.7722 9.87654 59.4145 11.6436 58.8336 13.9938C58.2085 16.5632 56.5612 18.4508 54.4899 19.9988C54.4165 20.0627 54.3339 20.115 54.2448 20.1538C52.8475 20.6214 52.8598 21.7067 53.0632 22.9372C53.2539 22.8043 53.4557 22.6882 53.6663 22.5902C54.2962 22.3441 54.9213 22.0217 55.5783 21.9356C57.7231 21.6526 59.3214 23.3556 58.8703 25.482C58.3041 28.162 56.6127 30.0964 54.4972 31.7059C54.4239 31.7699 54.3412 31.8221 54.2521 31.861C52.8794 32.3335 52.8206 33.3942 53.0657 34.6419C53.2353 34.5287 53.4122 34.4267 53.5952 34.3368C54.1761 34.0907 54.7497 33.7756 55.3576 33.66C57.5638 33.2391 59.3287 35.0012 58.8605 37.1965C58.2894 39.8716 56.6715 41.9069 54.4605 43.3786C53.4187 44.0701 52.9897 44.7814 52.8794 46.0242C52.6343 48.9774 50.7149 50.8872 47.7709 51.1481C45.4569 51.3523 43.1135 51.2884 40.7946 51.3671C40.3271 51.378 39.8641 51.461 39.4218 51.6132C35.5082 53.0303 32.0201 55.4277 29.2882 58.5779C29.2539 58.6862 29.1485 58.8191 29.0088 58.9766ZM24.9372 25.7182H24.9887C24.9887 29.5459 24.9887 33.3729 24.9887 37.1989C24.9887 40.0341 24.9053 42.8593 24.9887 45.7018C25.0769 48.8126 26.2903 49.92 29.3863 49.92C33.198 49.92 37.0098 49.92 40.8215 49.8806C43.0081 49.8634 45.1971 49.8806 47.3787 49.7305C49.9378 49.5656 51.3498 48.0767 51.5655 45.5271C51.6047 45.057 51.6317 44.5845 51.6317 44.112C51.6317 31.8281 51.6317 19.5443 51.6317 7.26046C51.6317 6.67015 51.5998 6.08027 51.5361 5.49344C51.3253 3.5886 50.2565 2.31378 48.3862 1.86341C47.538 1.6714 46.672 1.56994 45.8025 1.56071C43.6871 1.51149 41.5692 1.52625 39.4512 1.52379C35.7572 1.52379 32.0631 1.48195 28.3714 1.53855C26.5943 1.56562 25.528 2.52297 25.1701 4.26538C25.0142 5.12337 24.9428 5.99467 24.9568 6.8667C24.9298 13.1497 24.9372 19.4352 24.9372 25.7182ZM35.9018 51.5591L35.8871 51.3745C35.6419 51.3745 35.3968 51.3745 35.1517 51.3745C32.7543 51.3548 30.3545 51.404 27.9596 51.2908C25.9814 51.1973 24.5646 50.0997 23.9959 48.2047C23.6497 47.0052 23.4772 45.7619 23.4836 44.5131C23.4689 37.1916 23.5424 29.87 23.535 22.5484C23.5216 21.256 23.3845 19.9679 23.1257 18.7018C22.7555 16.829 22.0005 15.2047 19.8973 14.6436C18.733 14.331 17.7794 14.4713 17.0906 15.4631C16.5991 16.1797 16.2189 16.9672 15.963 17.7986C14.404 22.8831 13.926 28.1522 13.4112 33.4139C12.9774 37.8782 12.5508 42.3425 11.5164 46.7158C11.4538 46.8755 11.4545 47.0533 11.5183 47.2125C11.5821 47.3718 11.7042 47.5005 11.8596 47.5722C16.4827 50.6485 21.1017 53.733 25.7167 56.8257C26.3785 57.2687 27.0453 57.7092 27.7464 58.1743C30.0088 55.4587 32.7795 53.2146 35.9018 51.5689V51.5591ZM53.0608 19.2088C55.1591 17.8281 56.6225 16.1448 57.4069 13.9052C57.4799 13.657 57.5113 13.3984 57.5001 13.1399C57.5001 12.1948 56.9608 11.6263 56.0293 11.6288C54.8036 11.6288 53.9653 12.4212 53.1515 13.2137C53.0891 13.3125 53.0623 13.4297 53.0755 13.5459C53.0608 15.3917 53.0632 17.2252 53.0632 19.2186L53.0608 19.2088ZM53.0608 42.5591C54.9066 41.6067 56.9069 39.1825 57.3996 37.3638C57.4817 37.0426 57.5124 36.7103 57.4903 36.3794C57.4486 35.6411 57.0441 35.2203 56.321 35.0948C55.3871 34.9323 53.4996 35.8626 53.1147 36.6797C53.0777 36.7667 53.0601 36.8607 53.0632 36.9553C53.0608 38.7961 53.0608 40.6345 53.0608 42.5689V42.5591ZM53.0608 30.9282C55.1003 29.5968 56.5245 27.9873 57.326 25.8683C57.4626 25.4446 57.5151 24.9981 57.4805 24.5541C57.4584 23.9463 57.0711 23.5697 56.4999 23.4073C55.5415 23.1366 53.4947 24.1038 53.1025 25.0045C53.0766 25.0711 53.0641 25.1422 53.0657 25.2137C53.051 27.0767 53.051 28.9323 53.051 30.9381L53.0608 30.9282ZM13.019 57.6378C12.9018 57.4483 12.7618 57.2739 12.6023 57.1185C12.0753 56.6854 11.5213 56.2892 10.9747 55.888C9.50389 54.7855 8.05763 53.6731 6.56234 52.5976C6.41962 52.5187 6.26265 52.4691 6.1006 52.4517C5.93856 52.4344 5.77469 52.4497 5.6186 52.4967C5.45682 52.5484 5.29748 52.9742 5.3367 53.1957C5.4238 53.4582 5.59652 53.6837 5.82696 53.8355C7.74876 55.3121 9.68528 56.7592 11.6193 58.2162C11.7669 58.3365 11.9323 58.4329 12.1096 58.5016C12.5852 58.6493 13.0166 58.3023 13.019 57.6378ZM24.5401 63.751C24.5548 62.838 23.6723 62.0012 22.6869 61.9914C22.272 61.989 21.8722 62.1478 21.5712 62.4344C21.2701 62.7211 21.0911 63.1134 21.0715 63.5295C21.047 64.4697 21.8902 65.3999 22.7874 65.4393C23.2389 65.4355 23.6719 65.2585 23.9977 64.9447C24.3236 64.6308 24.5176 64.2038 24.5401 63.751ZM15.5708 59.6263L15.2472 59.6386C15.0585 59.9118 14.7325 60.1727 14.7104 60.4557C14.6736 60.9775 15.0462 61.3245 15.5684 61.3786C16.0586 61.4278 16.4018 61.0907 16.3038 60.6649C16.2106 60.2834 15.8258 59.961 15.5708 59.6263Z" fill="url(#paint0_linear_1776_1161)"/>
<path d="M8.02075 29.9966C8.216 26.182 8.75503 22.3929 9.63125 18.6759C9.64841 18.607 9.67782 18.543 9.69253 18.4741C9.78568 17.9671 10.0431 17.6053 10.5971 17.7358C11.2025 17.8687 11.2172 18.351 11.1069 18.858C10.8618 19.963 10.5652 21.0606 10.423 22.1779C10.0553 25.0992 9.74645 28.0254 9.44249 30.954C9.34689 31.904 9.15324 32.3002 8.61641 32.2608C8.07958 32.2214 7.88103 31.8252 7.95702 30.8555L8.02075 29.9966Z" fill="url(#paint1_linear_1776_1161)"/>
<path d="M41.6893 55.2051C41.5716 55.333 41.4049 55.648 41.15 55.7588C39.0029 56.6782 37.098 58.086 35.5856 59.8712C35.2743 60.2379 34.887 60.3929 34.4825 60.041C34.078 59.6891 34.1516 59.3027 34.4825 58.9212C36.1321 56.9448 38.2351 55.4001 40.6107 54.42C41.1794 54.1886 41.6599 54.4766 41.6893 55.2051Z" fill="url(#paint2_linear_1776_1161)"/>
<path d="M10.9961 15.9348C11.028 14.9504 11.6849 14.0004 12.1433 14.1456C12.3033 14.2076 12.4463 14.3068 12.5605 14.4352C12.6747 14.5636 12.7569 14.7174 12.8002 14.8839C12.864 15.6099 12.1506 16.5451 11.68 16.4295C11.3858 16.3482 11.1456 16.048 10.9961 15.9348Z" fill="url(#paint3_linear_1776_1161)"/>
<path d="M44.4324 52.8242C44.5403 52.9743 44.832 53.2131 44.9055 53.5084C45.0158 53.9538 44.2535 54.6232 43.7118 54.5051C43.5502 54.448 43.4035 54.3554 43.2822 54.234C43.1609 54.1127 43.0681 53.9657 43.0107 53.8037C42.8881 53.4026 43.6113 52.8562 44.4324 52.8242Z" fill="url(#paint4_linear_1776_1161)"/>
<path d="M47.7778 24.2894C47.7778 29.4084 43.4587 33.7374 38.3771 33.7226C33.254 33.7103 28.7828 29.0466 28.7804 23.716C28.7747 22.5273 29.005 21.3493 29.4578 20.2509C29.9105 19.1525 30.5767 18.1556 31.4173 17.3185C32.258 16.4813 33.2563 15.8207 34.3541 15.3751C35.4518 14.9296 36.627 14.708 37.8109 14.7234C43.2577 14.7283 47.7803 19.0671 47.7778 24.2894ZM36.6294 26.2804C36.046 25.7415 35.5337 25.2615 35.014 24.7866C34.6561 24.4593 34.2541 24.351 33.9011 24.7447C33.5481 25.1385 33.656 25.52 34.0212 25.8596C34.6757 26.4675 35.3229 27.0901 35.9823 27.6857C36.5926 28.2443 36.9088 28.2173 37.453 27.5971C38.6378 26.2255 39.8218 24.8555 41.0049 23.4871C41.4838 22.9342 41.9536 22.3764 42.4144 21.8136C42.7086 21.4568 42.7527 21.0753 42.3899 20.7456C42.0271 20.4158 41.6153 20.5142 41.2868 20.8785C41.1912 20.9843 41.1054 21.0975 41.0147 21.2033L36.6294 26.2804Z" fill="url(#paint5_linear_1776_1161)"/>
<path d="M37.0982 5.07875C36.1593 5.07875 35.2205 5.07875 34.2792 5.07875C33.7497 5.07875 33.3183 4.91878 33.3355 4.29859C33.3526 3.67841 33.7963 3.5972 34.2841 3.59966C36.1838 3.59966 38.086 3.62427 39.9882 3.63166C40.4957 3.63166 40.9124 3.80147 40.905 4.36997C40.8977 4.93847 40.5055 5.10828 39.9858 5.10828C39.0224 5.10828 38.0591 5.10828 37.0982 5.10828V5.07875Z" fill="url(#paint6_linear_1776_1161)"/>
<path d="M37.4165 47.3446C36.4532 47.3446 35.4923 47.3446 34.5289 47.3446C34.0043 47.3446 33.6244 47.1403 33.6391 46.5866C33.6538 46.0747 34.0264 45.8901 34.5191 45.8926C36.4679 45.8926 38.4166 45.8926 40.3654 45.9098C40.8557 45.9098 41.2086 46.1141 41.216 46.6358C41.2234 47.1576 40.8655 47.3741 40.3752 47.3741H37.4165V47.3446Z" fill="url(#paint7_linear_1776_1161)"/>
<path d="M43.1228 3.62585C43.5665 3.61108 44.0102 3.78582 43.9685 4.39369C43.922 5.10247 43.3532 5.10001 42.8164 5.09262C42.2796 5.08524 41.907 4.92773 41.9192 4.35431C41.9339 3.6037 42.5027 3.62585 43.1228 3.62585Z" fill="url(#paint8_linear_1776_1161)"/>
</g>
<defs>
<linearGradient id="paint0_linear_1776_1161" x1="14.375" y1="149.218" x2="90.2695" y2="123.983" gradientUnits="userSpaceOnUse">
<stop stop-color="#7E317A"/>
<stop offset="0.510417" stop-color="#DB4469"/>
<stop offset="1" stop-color="#EFAA76" stop-opacity="0.92"/>
</linearGradient>
<linearGradient id="paint1_linear_1776_1161" x1="8.72673" y1="47.8773" x2="13.2908" y2="47.4676" gradientUnits="userSpaceOnUse">
<stop stop-color="#7E317A"/>
<stop offset="0.510417" stop-color="#DB4469"/>
<stop offset="1" stop-color="#EFAA76" stop-opacity="0.92"/>
</linearGradient>
<linearGradient id="paint2_linear_1776_1161" x1="36.0319" y1="66.5653" x2="44.4857" y2="62.2105" gradientUnits="userSpaceOnUse">
<stop stop-color="#7E317A"/>
<stop offset="0.510417" stop-color="#DB4469"/>
<stop offset="1" stop-color="#EFAA76" stop-opacity="0.92"/>
</linearGradient>
<linearGradient id="paint3_linear_1776_1161" x1="11.4373" y1="18.9156" x2="13.7846" y2="18.1692" gradientUnits="userSpaceOnUse">
<stop stop-color="#7E317A"/>
<stop offset="0.510417" stop-color="#DB4469"/>
<stop offset="1" stop-color="#EFAA76" stop-opacity="0.92"/>
</linearGradient>
<linearGradient id="paint4_linear_1776_1161" x1="43.4654" y1="56.3368" x2="45.7301" y2="55.2956" gradientUnits="userSpaceOnUse">
<stop stop-color="#7E317A"/>
<stop offset="0.510417" stop-color="#DB4469"/>
<stop offset="1" stop-color="#EFAA76" stop-opacity="0.92"/>
</linearGradient>
<linearGradient id="paint5_linear_1776_1161" x1="33.4156" y1="54.1056" x2="56.7309" y2="44.642" gradientUnits="userSpaceOnUse">
<stop stop-color="#7E317A"/>
<stop offset="0.510417" stop-color="#DB4469"/>
<stop offset="1" stop-color="#EFAA76" stop-opacity="0.92"/>
</linearGradient>
<linearGradient id="paint6_linear_1776_1161" x1="35.1821" y1="6.72676" x2="37.2836" y2="2.44597" gradientUnits="userSpaceOnUse">
<stop stop-color="#7E317A"/>
<stop offset="0.510417" stop-color="#DB4469"/>
<stop offset="1" stop-color="#EFAA76" stop-opacity="0.92"/>
</linearGradient>
<linearGradient id="paint7_linear_1776_1161" x1="35.4875" y1="48.9635" x2="37.5272" y2="44.7289" gradientUnits="userSpaceOnUse">
<stop stop-color="#7E317A"/>
<stop offset="0.510417" stop-color="#DB4469"/>
<stop offset="1" stop-color="#EFAA76" stop-opacity="0.92"/>
</linearGradient>
<linearGradient id="paint8_linear_1776_1161" x1="42.4197" y1="6.6699" x2="44.6394" y2="5.411" gradientUnits="userSpaceOnUse">
<stop stop-color="#7E317A"/>
<stop offset="0.510417" stop-color="#DB4469"/>
<stop offset="1" stop-color="#EFAA76" stop-opacity="0.92"/>
</linearGradient>
<clipPath id="clip0_1776_1161">
<rect width="59" height="72" fill="white"/>
</clipPath>
</defs>
</svg>
