<svg width="102" height="94" viewBox="0 0 102 94" fill="none" xmlns="http://www.w3.org/2000/svg">
<g clip-path="url(#clip0_717_258)">
<path d="M69.4668 67.6349C73.2848 66.939 75.6841 68.045 77.5634 71.2812C79.3777 74.4251 81.1892 77.5689 82.9979 80.7127C85.2191 84.5712 84.2215 88.3364 80.3951 90.5542C78.9623 91.3831 77.5408 92.2317 76.0939 93.0323C72.5642 94.9786 68.7462 93.9319 66.7199 90.4467C64.8689 87.2841 63.0461 84.1044 61.2233 80.9276C59.2451 77.5132 59.4683 75.0068 62.0287 71.9319L58.3916 65.6207C51.7589 67.748 45.4201 67.12 39.4572 63.6122C34.7094 60.8286 31.4736 56.7268 29.6678 51.5472C27.9228 46.4596 28.0537 40.9151 30.0367 35.9157C32.0198 30.9163 35.7241 26.792 40.4802 24.2883C50.1537 19.1398 62.2802 21.8159 68.9468 30.5571C75.9102 39.6886 75.085 53.0323 65.8382 61.335L69.4668 67.6349Z" fill="url(#paint0_linear_717_258)"/>
<path d="M66.5389 56.8259C69.7869 52.8457 71.3745 47.764 70.9706 42.6406C70.5668 37.5172 68.2027 32.7476 64.3713 29.3266C56.2154 21.9715 43.5237 22.642 36.1477 30.84C28.865 38.9362 29.9305 50.509 35.5034 56.6986C36.176 51.1087 39.2922 47.8244 44.8519 46.8457C40.3303 42.1639 41.5907 36.5543 44.3969 33.6462C45.9389 32.0424 48.0106 31.054 50.2263 30.8651C52.442 30.6762 54.6507 31.2996 56.4415 32.6194C58.33 33.9722 59.6087 36.0167 59.9995 38.3082C60.5816 41.6349 59.5219 44.4722 57.0971 46.8768C62.7322 47.8075 65.5583 50.8145 66.5389 56.8259Z" fill="#181818"/>
<path d="M51.0212 49.4595C49.1532 49.4595 47.2852 49.4199 45.42 49.4595C43.8032 49.4935 42.242 50.0564 40.9749 51.0622C39.7078 52.068 38.8045 53.4614 38.403 55.0295C38.1345 56.1441 38.225 57.3379 38.0978 58.4892C38.013 59.2813 38.3069 59.7707 38.9456 60.2459C42.1623 62.6672 46.0322 64.0642 50.0524 64.2554C54.0725 64.4466 58.0573 63.4231 61.4889 61.3181C64.0012 59.7792 64.0012 59.7792 63.9079 56.8202C63.8596 54.8779 63.0645 53.0293 61.6884 51.6592C60.3123 50.2891 58.4612 49.5032 56.5207 49.4652C54.6866 49.4199 52.8412 49.4595 51.0212 49.4595Z" fill="#181818"/>
<path d="M72.6772 91.5755C73.3356 91.3605 74.0421 91.2389 74.6554 90.9136C76.3256 90.014 77.9703 89.0579 79.5896 88.0678C81.6102 86.8344 82.2376 84.5515 81.0733 82.4723C79.0951 78.9456 77.0735 75.4397 75.0086 71.9546C74.7475 71.4915 74.3972 71.0849 73.978 70.7583C73.5589 70.4317 73.0791 70.1916 72.5665 70.0519C72.054 69.9122 71.5189 69.8756 70.9921 69.9444C70.4654 70.0132 69.9575 70.1859 69.4979 70.4525C67.8022 71.369 66.1208 72.3422 64.4703 73.3521C62.543 74.5317 61.8676 76.8174 62.9612 78.7778C64.9819 82.4044 67.076 85.9914 69.1785 89.567C69.9302 90.8429 71.1511 91.4256 72.6772 91.5755Z" fill="url(#paint1_linear_717_258)"/>
<path d="M57.603 40.0085C57.608 38.7022 57.2257 37.4239 56.5044 36.3353C55.7831 35.2467 54.7554 34.3968 53.5512 33.8933C52.3471 33.3898 51.0208 33.2553 49.7403 33.5068C48.4597 33.7584 47.2826 34.3846 46.3579 35.3063C45.4331 36.228 44.8024 37.4036 44.5457 38.6844C44.2889 39.9651 44.4175 41.2933 44.9154 42.5007C45.4132 43.7082 46.2578 44.7407 47.3422 45.4673C48.4266 46.194 49.702 46.5822 51.007 46.5827C51.872 46.5868 52.7292 46.4198 53.5295 46.0912C54.3297 45.7626 55.0573 45.279 55.6702 44.6681C56.2831 44.0571 56.7694 43.331 57.1011 42.5313C57.4328 41.7317 57.6034 40.8743 57.603 40.0085Z" fill="#181818"/>
<path d="M60.771 64.6478C61.924 66.6449 63.0318 68.577 64.182 70.5516L67.2087 68.7949L63.8175 62.9023L60.771 64.6478Z" fill="url(#paint2_linear_717_258)"/>
<path d="M82.2996 25.2108C78.9734 20.4866 79.1401 16 82.6783 12.9222C84.2237 11.5795 86.2101 10.8554 88.2562 10.8888C90.3023 10.9222 92.264 11.7108 93.7648 13.1033C96.41 15.5417 97.9474 20.5771 93.9344 25.1599C94.2368 25.2362 94.4855 25.3098 94.737 25.3635C96.7538 25.7965 98.5659 26.8976 99.8802 28.4889C101.195 30.0802 101.934 32.0687 101.98 34.133C102.014 35.72 101.997 37.3069 101.98 38.8939C101.966 41.686 100.228 43.4682 97.433 43.488C93.4144 43.5163 89.3958 43.488 85.38 43.488C83.2294 43.488 81.0788 43.488 78.9282 43.488C75.9806 43.4682 74.2652 41.7483 74.2539 38.8204C74.2539 37.2673 74.2341 35.7086 74.2539 34.1641C74.2834 32.0633 75.0375 30.0373 76.3884 28.4293C77.7393 26.8213 79.604 25.7302 81.6666 25.3409C81.8475 25.3098 82.0142 25.2702 82.2996 25.2108ZM88.028 40.9477C91.1366 40.9477 94.2255 40.9477 97.3256 40.9477C98.8376 40.9477 99.4395 40.3112 99.448 38.8147C99.4565 37.3183 99.4734 35.7822 99.448 34.2688C99.4424 32.5541 98.767 30.9097 97.5661 29.687C96.3653 28.4643 94.7342 27.7603 93.0216 27.7256C89.749 27.6492 86.4709 27.6436 83.1955 27.7256C79.5923 27.819 76.8652 30.6818 76.8086 34.2942C76.786 35.7398 76.8086 37.1853 76.8086 38.6309C76.8086 40.4074 77.3541 40.9477 79.1599 40.9505C82.1103 40.9533 85.0578 40.9477 88.028 40.9477ZM88.1665 13.4456C87.0298 13.4388 85.9168 13.7703 84.9686 14.3978C84.0204 15.0253 83.2798 15.9207 82.8408 16.9702C82.4018 18.0197 82.2842 19.1762 82.5029 20.2927C82.7215 21.4093 83.2666 22.4357 84.069 23.2416C84.8714 24.0476 85.8948 24.5968 87.0095 24.8195C88.1242 25.0422 89.2799 24.9285 90.3299 24.4927C91.3799 24.0569 92.2769 23.3187 92.9071 22.3717C93.5372 21.4248 93.8722 20.3118 93.8694 19.174C93.8635 17.66 93.2614 16.2093 92.1937 15.1369C91.126 14.0645 89.679 13.4567 88.1665 13.4456Z" fill="url(#paint3_linear_717_258)"/>
<path d="M8.09648 25.1682C4.14003 20.642 5.55305 15.6576 8.18126 13.1682C9.66499 11.7576 11.6172 10.9459 13.6627 10.889C15.7081 10.832 17.7024 11.534 19.2621 12.8598C22.8597 15.9263 23.0518 20.328 19.751 25.1823C20.2399 25.3068 20.7091 25.4115 21.1641 25.5444C23.0236 26.0785 24.6641 27.193 25.8465 28.7257C27.0289 30.2584 27.6914 32.129 27.7374 34.0649C27.7741 35.7934 27.7713 37.5218 27.7374 39.2502C27.7455 40.285 27.369 41.2859 26.6813 42.0586C25.9935 42.8312 25.0434 43.3204 24.0155 43.4313C23.5963 43.4803 23.1743 43.5011 22.7523 43.4935C16.8647 43.4935 10.979 43.4935 5.09523 43.4935C1.65595 43.4935 0.0253295 41.8754 0.0338076 38.4581C0.0338076 36.7297 -0.0792335 34.9871 0.115763 33.2785C0.579232 29.154 3.49005 26.1498 7.60758 25.3266C7.73475 25.2955 7.85909 25.2417 8.09648 25.1682ZM13.8842 40.9475C16.9476 40.9475 20.011 40.9475 23.0745 40.9475C24.6005 40.9475 25.2053 40.3308 25.2138 38.84C25.2222 37.3492 25.2335 35.8075 25.2138 34.2941C25.1544 30.6816 22.4245 27.816 18.8241 27.7255C15.5516 27.6434 12.2734 27.6491 9.00081 27.7255C7.28849 27.7602 5.65771 28.4642 4.45728 29.687C3.25684 30.9098 2.58205 32.5542 2.57724 34.2686C2.54898 35.7141 2.57724 37.1597 2.57724 38.6052C2.57724 40.3846 3.14244 40.9475 4.91154 40.9504C7.90714 40.9532 10.8914 40.9475 13.8842 40.9475ZM13.8616 13.4454C13.098 13.4341 12.3399 13.5754 11.6317 13.8612C10.9234 14.147 10.2793 14.5714 9.73702 15.1096C9.19477 15.6479 8.76533 16.289 8.47387 16.9956C8.18241 17.7021 8.0348 18.4597 8.03969 19.2241C8.04459 19.9885 8.20188 20.7442 8.50236 21.4469C8.80283 22.1497 9.24044 22.7853 9.78953 23.3165C10.3386 23.8477 10.9881 24.2639 11.7 24.5406C12.4118 24.8172 13.1717 24.9489 13.9351 24.9277C14.6986 24.9391 15.4567 24.7977 16.165 24.5119C16.8733 24.2262 17.5174 23.8017 18.0596 23.2635C18.6019 22.7253 19.0313 22.0841 19.3228 21.3776C19.6142 20.671 19.7618 19.9134 19.757 19.149C19.7521 18.3846 19.5948 17.6289 19.2943 16.9262C18.9938 16.2234 18.5562 15.5878 18.0071 15.0566C17.458 14.5254 16.8085 14.1092 16.0967 13.8326C15.3848 13.5559 14.6249 13.4243 13.8616 13.4454Z" fill="url(#paint4_linear_717_258)"/>
<path d="M44.4507 17.321C44.7841 15.9377 45.1063 14.3818 45.5472 12.8656C45.7591 12.1385 45.6235 11.7057 45.0385 11.2531C43.9422 10.4235 42.8957 9.52989 41.9044 8.57701C41.537 8.21775 41.1668 7.44547 41.3166 7.08338C41.4975 6.63642 42.1983 6.21492 42.7296 6.13571C44.1268 5.95552 45.5322 5.846 46.9404 5.80756C47.2014 5.82166 47.4591 5.74481 47.6699 5.59008C47.8806 5.43535 48.0313 5.21231 48.0962 4.95891C48.575 3.59647 49.1298 2.26198 49.7579 0.961736C49.984 0.511948 50.6058 -0.022703 51.024 -0.0170453C51.4423 -0.0113876 52.047 0.534581 52.2759 0.990026C52.883 2.22159 53.4088 3.49163 53.85 4.79201C54.1157 5.55863 54.5622 5.80474 55.3224 5.82737C56.5885 5.86132 57.8658 5.99427 59.1206 6.06782C59.8158 6.10742 60.4856 6.19512 60.754 6.96457C61.0225 7.73401 60.5901 8.22623 60.0419 8.67885C58.9793 9.55579 57.9506 10.4667 56.8796 11.3295C56.4189 11.7029 56.2465 12.0452 56.4302 12.6732C56.8505 14.0548 57.1874 15.4604 57.4391 16.8825C57.5239 17.3832 57.3515 18.1781 57.0039 18.4356C56.6563 18.693 55.8509 18.6025 55.3987 18.3677C54.1557 17.7036 52.9535 16.9659 51.7983 16.1583C51.2049 15.751 50.7753 15.7906 50.196 16.181C48.9695 17.007 47.7034 17.7821 46.4204 18.5148C45.4652 19.0777 44.4874 18.5374 44.4507 17.321ZM54.0592 14.775L54.2316 14.4469C54.0761 13.8047 53.9744 13.1428 53.7568 12.5233C53.3753 11.437 53.6127 10.6251 54.5792 9.96315C55.1878 9.49712 55.7708 8.99852 56.3256 8.46952C55.3111 8.37617 54.5396 8.24887 53.7681 8.24604C52.8157 8.24604 52.2759 7.81322 51.9764 6.92779C51.7249 6.19795 51.3716 5.51336 50.9816 4.59964C50.5662 5.59823 50.2327 6.33656 49.9501 7.09469C49.8505 7.43373 49.6402 7.7295 49.3527 7.93466C49.0653 8.13982 48.7174 8.24249 48.3647 8.22624C47.5367 8.25453 46.7115 8.37051 45.6574 8.46952C46.4289 9.12015 47.0223 9.65198 47.6356 10.147C48.3167 10.6873 48.5851 11.3012 48.2969 12.181C48.0828 12.9391 47.9073 13.7077 47.7712 14.4837L47.9012 14.8825C49.9727 12.495 52.0216 12.6562 54.0705 14.7694L54.0592 14.775Z" fill="url(#paint5_linear_717_258)"/>
</g>
<defs>
<linearGradient id="paint0_linear_717_258" x1="42.0425" y1="171.586" x2="114.591" y2="148.897" gradientUnits="userSpaceOnUse">
<stop stop-color="#7E317A"/>
<stop offset="0.510417" stop-color="#DB4469"/>
<stop offset="1" stop-color="#EFAA76" stop-opacity="0.92"/>
</linearGradient>
<linearGradient id="paint1_linear_717_258" x1="67.1267" y1="114.817" x2="91.4445" y2="106.061" gradientUnits="userSpaceOnUse">
<stop stop-color="#7E317A"/>
<stop offset="0.510417" stop-color="#DB4469"/>
<stop offset="1" stop-color="#EFAA76" stop-opacity="0.92"/>
</linearGradient>
<linearGradient id="paint2_linear_717_258" x1="62.3418" y1="78.7576" x2="70.5824" y2="75.9421" gradientUnits="userSpaceOnUse">
<stop stop-color="#7E317A"/>
<stop offset="0.510417" stop-color="#DB4469"/>
<stop offset="1" stop-color="#EFAA76" stop-opacity="0.92"/>
</linearGradient>
<linearGradient id="paint3_linear_717_258" x1="81.0171" y1="78.4873" x2="116.461" y2="66.2423" gradientUnits="userSpaceOnUse">
<stop stop-color="#7E317A"/>
<stop offset="0.510417" stop-color="#DB4469"/>
<stop offset="1" stop-color="#EFAA76" stop-opacity="0.92"/>
</linearGradient>
<linearGradient id="paint4_linear_717_258" x1="6.77521" y1="78.4779" x2="42.2266" y2="66.2255" gradientUnits="userSpaceOnUse">
<stop stop-color="#7E317A"/>
<stop offset="0.510417" stop-color="#DB4469"/>
<stop offset="1" stop-color="#EFAA76" stop-opacity="0.92"/>
</linearGradient>
<linearGradient id="paint5_linear_717_258" x1="46.0534" y1="38.858" x2="69.7584" y2="28.8254" gradientUnits="userSpaceOnUse">
<stop stop-color="#7E317A"/>
<stop offset="0.510417" stop-color="#DB4469"/>
<stop offset="1" stop-color="#EFAA76" stop-opacity="0.92"/>
</linearGradient>
<clipPath id="clip0_717_258">
<rect width="102" height="94" fill="white"/>
</clipPath>
</defs>
</svg>
