<svg width="73" height="89" viewBox="0 0 73 89" fill="none" xmlns="http://www.w3.org/2000/svg">
<g clip-path="url(#clip0_717_294)">
<path d="M35.8918 72.9013C38.7488 75.335 38.215 77.7687 36.8017 80.032C35.4551 82.1828 34.0872 84.3183 32.7224 86.4539C32.4876 86.8234 32.2304 87.1779 31.952 87.5156C30.7874 88.9058 29.3497 89.3409 27.6483 88.705C26.8913 88.4073 26.1708 88.0235 25.5009 87.5612C17.961 82.5438 10.4292 77.5152 2.90548 72.4754C2.24215 72.049 1.63134 71.5456 1.08571 70.9756C-0.154766 69.6158 -0.382226 68.0248 0.585284 66.4642C2.24431 63.7902 3.96702 61.1496 5.77465 58.576C7.188 56.5651 9.44149 55.5704 12.1256 57.1097C12.2908 57.1813 12.4599 57.2433 12.6321 57.2953C13.1386 53.9489 13.7088 50.6787 14.1153 47.3901C14.8674 41.3394 15.4255 35.2612 16.2626 29.2257C16.6478 26.4361 17.3969 23.683 18.1885 20.9755C18.5758 19.7272 19.2206 18.5746 20.0811 17.5927C21.4125 16.0716 23.1625 15.6487 25.1582 16.3758C26.6747 16.9203 28.0335 17.6292 29.0374 19.2323C29.0707 18.7791 29.1041 18.5448 29.101 18.3197C29.0737 15.1377 29.0222 11.9526 29.0222 8.77053C28.9934 7.66162 29.0594 6.55227 29.2193 5.45463C29.8259 1.86799 32.043 0.0305482 35.7978 0.0153377C40.5716 -0.00595712 45.3455 0.0335885 50.1194 0.0609675C52.6509 0.0771921 55.1783 0.112685 57.7017 0.167443C58.4006 0.183523 59.0964 0.267062 59.7793 0.416899C63.5189 1.24131 65.4843 3.675 65.6238 7.73317C65.6936 9.74097 65.6238 11.7518 65.6238 13.8752C65.9059 13.72 66.0878 13.5953 66.288 13.5132C67.0341 13.209 67.7681 12.7648 68.5475 12.6492C71.4804 12.2081 73.5125 14.3924 72.7937 17.2976C72.0203 20.4735 69.9821 22.8068 67.4193 24.7203C67.3285 24.7994 67.2263 24.864 67.116 24.912C65.3872 25.49 65.4024 26.8315 65.6541 28.3526C65.89 28.1883 66.1396 28.0448 66.4002 27.9237C67.1797 27.6194 67.9531 27.2209 68.7659 27.1145C71.4198 26.7646 73.3972 28.8698 72.8392 31.4981C72.1386 34.811 70.0458 37.2021 67.4284 39.1916C67.3376 39.2707 67.2354 39.3353 67.1251 39.3833C65.4266 39.9674 65.3539 41.2785 65.6572 42.8209C65.8671 42.6809 66.0859 42.5549 66.3123 42.4437C67.0311 42.1395 67.7408 41.7501 68.493 41.6071C71.2226 41.0869 73.4063 43.265 72.827 45.9786C72.1204 49.2854 70.1186 51.8012 67.3829 53.6204C66.0939 54.4752 65.5631 55.3544 65.4267 56.8906C65.1234 60.5412 62.7485 62.9019 59.106 63.2243C56.2429 63.4768 53.3434 63.3977 50.4742 63.4951C49.8959 63.5086 49.323 63.6112 48.7758 63.7993C43.9335 65.551 39.6177 68.5144 36.2376 72.4085C36.1951 72.5423 36.0647 72.7066 35.8918 72.9013ZM30.8541 31.7902H30.9178C30.9178 36.5217 30.9178 41.2522 30.9178 45.9816C30.9178 49.4862 30.8147 52.9785 30.9178 56.4921C31.027 60.3374 32.5283 61.7063 36.3589 61.7063C41.0751 61.7063 45.7913 61.7063 50.5076 61.6576C53.213 61.6363 55.9214 61.6576 58.6207 61.4721C61.7871 61.2682 63.5341 59.4278 63.801 56.2761C63.8495 55.6951 63.8829 55.111 63.8829 54.5269C63.8829 39.3427 63.8829 24.1585 63.8829 8.97435C63.8829 8.24466 63.8434 7.51551 63.7646 6.79012C63.5038 4.43552 62.1814 2.85971 59.8673 2.303C58.8178 2.06566 57.7463 1.94024 56.6705 1.92883C54.0531 1.86799 51.4326 1.88623 48.8122 1.88319C44.2415 1.88319 39.6709 1.83147 35.1033 1.90144C32.9044 1.9349 31.585 3.11829 31.1422 5.27211C30.9494 6.33268 30.861 7.4097 30.8783 8.48762C30.845 16.2541 30.8541 24.0237 30.8541 31.7902ZM44.4205 63.7323L44.4023 63.5042C44.099 63.5042 43.7957 63.5042 43.4924 63.5042C40.5261 63.4799 37.5569 63.5407 34.5937 63.4008C32.1461 63.2852 30.3931 61.9284 29.6894 59.586C29.2612 58.1032 29.0477 56.5665 29.0556 55.0228C29.0374 45.9725 29.1283 36.9222 29.1192 27.872C29.1026 26.2744 28.933 24.6821 28.6127 23.1171C28.1548 20.8021 27.2206 18.7943 24.6184 18.1007C23.1777 17.7143 21.9979 17.8877 21.1456 19.1137C20.5374 19.9996 20.067 20.973 19.7505 22.0007C17.8215 28.2857 17.2301 34.7988 16.5932 41.3029C16.0563 46.8213 15.5286 52.3396 14.2487 57.7455C14.1712 57.9429 14.1721 58.1627 14.251 58.3595C14.33 58.5564 14.4811 58.7155 14.6733 58.8041C20.3934 62.6068 26.1085 66.4196 31.8186 70.2425C32.6375 70.7901 33.4624 71.3346 34.3298 71.9095C37.1291 68.5527 40.5573 65.7787 44.4205 63.7445V63.7323ZM65.6511 23.7438C68.2473 22.0372 70.0579 19.9564 71.0285 17.188C71.1187 16.8812 71.1577 16.5615 71.1437 16.242C71.1437 15.0738 70.4765 14.3711 69.324 14.3741C67.8075 14.3741 66.7702 15.3537 65.7633 16.3332C65.6861 16.4553 65.6529 16.6003 65.6693 16.7439C65.6511 19.0255 65.6541 21.2919 65.6541 23.756L65.6511 23.7438ZM65.6511 52.6074C67.9349 51.4301 70.4098 48.4336 71.0194 46.1855C71.1211 45.7884 71.159 45.3776 71.1316 44.9686C71.0801 44.056 70.5796 43.5358 69.6849 43.3806C68.5293 43.1799 66.194 44.3298 65.7178 45.3397C65.672 45.4473 65.6503 45.5636 65.6541 45.6805C65.6511 47.956 65.6511 50.2284 65.6511 52.6195V52.6074ZM65.6511 38.2303C68.1745 36.5846 69.9366 34.595 70.9284 31.9758C71.0974 31.452 71.1623 30.9001 71.1195 30.3513C71.0922 29.5999 70.613 29.1344 69.9063 28.9336C68.7204 28.599 66.1879 29.7946 65.7026 30.908C65.6707 30.9903 65.6552 31.0782 65.6572 31.1666C65.639 33.4694 65.639 35.7632 65.639 38.2425L65.6511 38.2303ZM16.1079 71.2464C15.9628 71.0121 15.7896 70.7965 15.5923 70.6045C14.9402 70.0691 14.2548 69.5793 13.5784 69.0834C11.7587 67.7206 9.96921 66.3455 8.11911 65.0161C7.94252 64.9185 7.74831 64.8572 7.54781 64.8358C7.34731 64.8144 7.14456 64.8333 6.95144 64.8914C6.75126 64.9553 6.55411 65.4816 6.60264 65.7554C6.71041 66.0799 6.92411 66.3586 7.20923 66.5463C9.58706 68.3716 11.9831 70.1603 14.3761 71.9613C14.5586 72.11 14.7633 72.2291 14.9827 72.3142C15.5711 72.4967 16.1049 72.0677 16.1079 71.2464ZM30.3628 78.803C30.381 77.6744 29.2891 76.64 28.0698 76.6279C27.5565 76.6249 27.0619 76.8211 26.6894 77.1755C26.3169 77.5298 26.0954 78.0148 26.0711 78.5292C26.0408 79.6913 27.0841 80.8412 28.1942 80.8899C28.7529 80.8851 29.2886 80.6664 29.6917 80.2784C30.0949 79.8905 30.3349 79.3627 30.3628 78.803ZM19.2652 73.7044L18.8648 73.7196C18.6313 74.0573 18.2279 74.3797 18.2006 74.7296C18.1551 75.3745 18.6161 75.8035 19.2622 75.8704C19.8687 75.9312 20.2934 75.5145 20.172 74.9882C20.0568 74.5166 19.5806 74.1181 19.2652 73.7044Z" fill="url(#paint0_linear_717_294)"/>
<path d="M9.92386 37.0805C10.1654 32.3652 10.8324 27.6815 11.9165 23.0868C11.9377 23.0016 11.9741 22.9225 11.9923 22.8374C12.1076 22.2107 12.426 21.7635 13.1115 21.9247C13.8606 22.089 13.8788 22.6852 13.7423 23.3119C13.439 24.6778 13.0721 26.0346 12.8961 27.4157C12.4412 31.0267 12.059 34.6438 11.683 38.2639C11.5647 39.4382 11.3251 39.9279 10.6609 39.8793C9.99665 39.8306 9.75098 39.3408 9.845 38.1422L9.92386 37.0805Z" fill="url(#paint1_linear_717_294)"/>
<path d="M51.5814 68.2404C51.4358 68.3986 51.2296 68.788 50.9142 68.9249C48.2576 70.0614 45.9006 71.8016 44.0294 74.0083C43.6442 74.4615 43.165 74.6532 42.6646 74.2182C42.1641 73.7832 42.2551 73.3055 42.6646 72.834C44.7056 70.3909 47.3076 68.4815 50.2469 67.27C50.9506 66.984 51.545 67.34 51.5814 68.2404Z" fill="url(#paint2_linear_717_294)"/>
<path d="M13.6057 19.6976C13.6451 18.4808 14.458 17.3065 15.0251 17.486C15.2231 17.5626 15.4 17.6853 15.5413 17.844C15.6827 18.0027 15.7843 18.1928 15.838 18.3987C15.9168 19.2961 15.0342 20.4521 14.4519 20.3091C14.0879 20.2087 13.7907 19.8376 13.6057 19.6976Z" fill="url(#paint3_linear_717_294)"/>
<path d="M54.9752 65.2959C55.1086 65.4815 55.4695 65.7766 55.5605 66.1416C55.697 66.6922 54.7538 67.5197 54.0835 67.3737C53.8837 67.3031 53.7021 67.1886 53.552 67.0386C53.4019 66.8886 53.2872 66.7068 53.2161 66.5067C53.0644 66.0108 53.9591 65.3354 54.9752 65.2959Z" fill="url(#paint4_linear_717_294)"/>
<path d="M59.1151 30.0258C59.1151 36.3534 53.771 41.7045 47.4837 41.6862C41.1449 41.671 35.6128 35.9062 35.6097 29.317C35.6028 27.8476 35.8877 26.3915 36.4479 25.0337C37.0081 23.6759 37.8323 22.4437 38.8724 21.4089C39.9126 20.3741 41.1478 19.5575 42.506 19.0067C43.8642 18.456 45.3182 18.1821 46.7831 18.2011C53.5223 18.2072 59.1181 23.5704 59.1151 30.0258ZM45.3212 32.4869C44.5994 31.8206 43.9655 31.2274 43.3225 30.6403C42.8797 30.2357 42.3823 30.1019 41.9456 30.5886C41.5088 31.0753 41.6423 31.5469 42.0942 31.9667C42.904 32.7181 43.7047 33.4877 44.5205 34.2239C45.2757 34.9145 45.667 34.881 46.3403 34.1144C47.8062 32.4189 49.2711 30.7255 50.735 29.0341C51.3275 28.3506 51.9088 27.6611 52.479 26.9654C52.8429 26.5243 52.8975 26.0528 52.4487 25.6452C51.9998 25.2375 51.4903 25.3592 51.0838 25.8094C50.9656 25.9403 50.8594 26.0802 50.7472 26.211L45.3212 32.4869Z" fill="url(#paint5_linear_717_294)"/>
<path d="M45.9006 6.27906C44.7389 6.27906 43.5773 6.27906 42.4127 6.27906C41.7576 6.27906 41.2238 6.08132 41.245 5.31471C41.2662 4.5481 41.8152 4.44771 42.4187 4.45075C44.7693 4.45075 47.1228 4.48117 49.4764 4.4903C50.1042 4.4903 50.6198 4.7002 50.6107 5.40293C50.6016 6.10566 50.1164 6.31556 49.4734 6.31556C48.2814 6.31556 47.0895 6.31556 45.9006 6.31556V6.27906Z" fill="url(#paint6_linear_717_294)"/>
<path d="M46.2949 58.5244C45.1029 58.5244 43.914 58.5244 42.7221 58.5244C42.073 58.5244 41.6029 58.2719 41.6211 57.5874C41.6393 56.9546 42.1003 56.7265 42.7099 56.7295C45.1211 56.7295 47.5323 56.7295 49.9435 56.7508C50.5501 56.7508 50.9868 57.0033 50.9959 57.6482C51.005 58.2932 50.5622 58.5609 49.9556 58.5609H46.2949V58.5244Z" fill="url(#paint7_linear_717_294)"/>
<path d="M53.3555 4.48103C53.9045 4.46278 54.4534 4.67877 54.4019 5.43017C54.3443 6.3063 53.6406 6.30325 52.9764 6.29413C52.3122 6.285 51.8512 6.0903 51.8663 5.38149C51.8845 4.45365 52.5882 4.48103 53.3555 4.48103Z" fill="url(#paint8_linear_717_294)"/>
</g>
<defs>
<linearGradient id="paint0_linear_717_294" x1="17.7856" y1="184.45" x2="111.671" y2="153.203" gradientUnits="userSpaceOnUse">
<stop stop-color="#7E317A"/>
<stop offset="0.510417" stop-color="#DB4469"/>
<stop offset="1" stop-color="#EFAA76" stop-opacity="0.92"/>
</linearGradient>
<linearGradient id="paint1_linear_717_294" x1="10.7974" y1="59.1831" x2="16.4444" y2="58.6756" gradientUnits="userSpaceOnUse">
<stop stop-color="#7E317A"/>
<stop offset="0.510417" stop-color="#DB4469"/>
<stop offset="1" stop-color="#EFAA76" stop-opacity="0.92"/>
</linearGradient>
<linearGradient id="paint2_linear_717_294" x1="44.5816" y1="82.283" x2="55.0372" y2="76.8919" gradientUnits="userSpaceOnUse">
<stop stop-color="#7E317A"/>
<stop offset="0.510417" stop-color="#DB4469"/>
<stop offset="1" stop-color="#EFAA76" stop-opacity="0.92"/>
</linearGradient>
<linearGradient id="paint3_linear_717_294" x1="14.1516" y1="23.3823" x2="17.0554" y2="22.458" gradientUnits="userSpaceOnUse">
<stop stop-color="#7E317A"/>
<stop offset="0.510417" stop-color="#DB4469"/>
<stop offset="1" stop-color="#EFAA76" stop-opacity="0.92"/>
</linearGradient>
<linearGradient id="paint4_linear_717_294" x1="53.7786" y1="69.6379" x2="56.5799" y2="68.3488" gradientUnits="userSpaceOnUse">
<stop stop-color="#7E317A"/>
<stop offset="0.510417" stop-color="#DB4469"/>
<stop offset="1" stop-color="#EFAA76" stop-opacity="0.92"/>
</linearGradient>
<linearGradient id="paint5_linear_717_294" x1="41.3449" y1="66.8819" x2="70.1848" y2="55.1647" gradientUnits="userSpaceOnUse">
<stop stop-color="#7E317A"/>
<stop offset="0.510417" stop-color="#DB4469"/>
<stop offset="1" stop-color="#EFAA76" stop-opacity="0.92"/>
</linearGradient>
<linearGradient id="paint6_linear_717_294" x1="43.5298" y1="8.31619" x2="46.126" y2="3.0227" gradientUnits="userSpaceOnUse">
<stop stop-color="#7E317A"/>
<stop offset="0.510417" stop-color="#DB4469"/>
<stop offset="1" stop-color="#EFAA76" stop-opacity="0.92"/>
</linearGradient>
<linearGradient id="paint7_linear_717_294" x1="43.9082" y1="60.5256" x2="46.4279" y2="55.2891" gradientUnits="userSpaceOnUse">
<stop stop-color="#7E317A"/>
<stop offset="0.510417" stop-color="#DB4469"/>
<stop offset="1" stop-color="#EFAA76" stop-opacity="0.92"/>
</linearGradient>
<linearGradient id="paint8_linear_717_294" x1="52.4855" y1="8.24382" x2="55.2307" y2="6.68543" gradientUnits="userSpaceOnUse">
<stop stop-color="#7E317A"/>
<stop offset="0.510417" stop-color="#DB4469"/>
<stop offset="1" stop-color="#EFAA76" stop-opacity="0.92"/>
</linearGradient>
<clipPath id="clip0_717_294">
<rect width="73" height="89" fill="white"/>
</clipPath>
</defs>
</svg>
