<svg width="94" height="94" viewBox="0 0 94 94" fill="none" xmlns="http://www.w3.org/2000/svg">
<g clip-path="url(#clip0_717_275)">
<path d="M46.9718 93.9974C29.723 94.0178 16.8465 79.7415 16.9311 63.6476C17.0208 47.0649 30.5534 33.7305 47.1871 33.8094C63.8901 33.8909 77.2637 47.3857 77.2202 63.9811C77.1817 79.5175 64.3642 94.1375 46.9718 93.9974Z" fill="url(#paint0_linear_717_275)"/>
<path d="M68.2342 80.7392C76.9227 70.2637 76.5767 53.5333 64.9843 43.4549C62.2525 41.0529 59.0597 39.2245 55.5981 38.0796C52.1364 36.9347 48.4774 36.497 44.8411 36.7928C41.2048 37.0887 37.6663 38.1119 34.4383 39.801C31.2104 41.4901 28.3597 43.8102 26.0577 46.6218C16.608 58.024 19.1197 73.0792 25.8014 80.4796C26.2705 79.2678 26.6549 77.9873 27.2393 76.8087C29.2051 72.8577 32.6574 70.9332 36.83 70.1135C38.4754 69.7876 40.1619 69.6349 42.0944 69.3676C41.8765 68.8585 41.8124 68.2806 41.4844 68.0388C38.7394 66.0022 36.8377 63.3648 35.9509 60.1165C35.2102 57.3977 34.7232 54.6025 34.2414 51.8201C33.4904 47.4924 35.2999 44.4146 39.4288 42.7905C42.5711 41.5533 45.8055 41.6449 49.0605 42.1693C50.4343 42.3908 51.7184 42.8414 52.7692 43.8113C52.9385 43.9535 53.1398 44.0531 53.3561 44.1015C54.5229 44.4059 55.612 44.9509 56.5527 45.701C57.4933 46.4512 58.2644 47.3897 58.8156 48.4555C59.3669 49.5212 59.686 50.6904 59.7522 51.8868C59.8183 53.0832 59.6301 54.28 59.1997 55.3993C58.9239 56.1727 58.7198 56.9694 58.5897 57.7796C57.8413 61.8374 56.0421 65.2894 52.6949 67.8122C52.1823 68.194 51.9977 68.5937 52.2873 69.0621C52.5251 69.3782 52.8735 69.5944 53.2638 69.668C55.1066 70.0346 57.0007 70.2077 58.8076 70.6863C62.7417 71.7427 65.7686 73.9702 67.3167 77.8601C67.6576 78.7816 67.9139 79.7362 68.2342 80.7392Z" fill="#181818"/>
<path d="M52.4849 72.5652C52.2594 73.4461 52.0774 74.2174 51.8621 74.9811C51.5523 76.1251 50.8648 77.1326 49.9098 77.8421C48.9547 78.5516 47.7874 78.9219 46.5951 78.8938C44.2577 78.8684 42.4944 77.4097 41.828 74.9608C41.6481 74.3844 41.4992 73.7989 41.382 73.2068C41.2923 72.6314 41.0027 72.443 40.4696 72.5474C38.8421 72.8504 37.1788 73.026 35.6 73.4842C32.1322 74.4847 29.9614 76.8242 29.0285 80.2965C28.8234 81.0602 28.6876 81.8469 28.5159 82.6182C28.3698 83.2368 28.5543 83.6721 29.0541 84.1024C32.8986 87.4118 37.2556 89.6011 42.256 90.4386C50.8395 91.8769 58.4515 89.7309 65.0666 84.1075C65.2844 83.9216 65.5382 83.5983 65.5177 83.3437C65.246 79.8154 64.2362 76.6358 60.9299 74.7189C58.3413 73.2195 55.4708 72.8274 52.4849 72.5652Z" fill="#181818"/>
<path d="M46.8102 67.0692C48.6738 66.8486 50.4169 66.0392 51.7824 64.7603C53.4406 63.2888 54.4248 61.3872 55.1988 59.3277C55.796 57.7468 55.6499 56.6522 54.2095 55.5092C53.0305 54.5647 52.1027 54.0607 50.7392 54.9262C50.3727 55.1579 49.9037 55.2291 49.4987 55.415C47.802 56.2016 46.1284 56.1609 44.4189 55.415C43.3937 54.9771 42.2532 54.2287 41.3151 54.3967C40.3771 54.5647 39.6287 55.7587 38.7521 56.4485C38.5418 56.5896 38.386 56.7973 38.3101 57.0378C38.2342 57.2783 38.2427 57.5373 38.3344 57.7723C39.2929 61.3363 40.6411 64.5795 44.4368 66.0662C45.239 66.3819 46.0208 66.7357 46.8102 67.0692Z" fill="#181818"/>
<path d="M37.5042 53.4599C38.0168 53.0118 38.3833 52.7191 38.714 52.3932C39.9724 51.1458 41.4948 50.7945 43.0019 51.6295C45.7699 53.1798 48.3995 53.0449 51.1086 51.5531C52.5105 50.7894 53.8228 51.1764 54.9864 52.1743C55.499 52.6249 56.0116 53.0856 56.5729 53.5719C57.2315 51.5633 55.9295 48.3405 54.1585 47.4164C53.885 47.2513 53.5837 47.1366 53.2692 47.0778C52.1722 46.9454 51.2034 46.6857 50.4345 45.7515C50.1039 45.3492 49.3606 45.1736 48.7814 45.1049C47.235 44.889 45.6758 44.7767 44.1142 44.7688C42.2128 44.754 40.3558 45.3397 38.8114 46.4414C37.6657 47.2814 36.9276 48.399 36.9737 49.8246C37.0122 50.9829 37.2992 52.1234 37.5042 53.4599Z" fill="#181818"/>
<path d="M44.8701 69.6553C44.0782 71.4704 44.7215 73.1403 45.352 74.7467C45.8492 76.0195 47.7766 76.2283 48.2866 75.0954C48.7966 73.9626 48.9581 72.7458 49.1964 71.5467C49.2833 70.9208 49.3253 70.2896 49.322 69.6578L44.8701 69.6553Z" fill="url(#paint1_linear_717_275)"/>
<path d="M36.9481 27.9468C37.3428 25.5335 37.658 23.11 38.1578 20.7119C38.4141 19.4671 38.2296 18.6117 37.2377 17.7334C35.5461 16.2366 34.016 14.5589 32.3962 12.9781C31.8554 12.4511 31.4889 11.8783 31.7503 11.1197C32.0118 10.3611 32.6166 10.1982 33.3342 10.1014C35.8639 9.76539 38.3859 9.35808 40.9181 9.03223C41.1831 9.02373 41.4397 8.93781 41.6558 8.78522C41.8718 8.63263 42.0379 8.42014 42.133 8.17433C43.2504 5.81956 44.4217 3.49025 45.5648 1.1482C45.8724 0.514322 46.2542 0.00772538 47.0513 8.82805e-05C47.8484 -0.00754882 48.2457 0.481222 48.5584 1.11765C49.6861 3.43169 50.8394 5.73301 51.9415 8.05978C52.042 8.3362 52.2228 8.57683 52.4609 8.75127C52.699 8.92571 52.9838 9.02615 53.2794 9.03987C55.8142 9.34281 58.3336 9.75521 60.8633 10.104C61.5835 10.2007 62.1781 10.44 62.401 11.1783C62.624 11.9165 62.278 12.4511 61.7654 12.9603C59.9226 14.7677 58.1106 16.6082 56.2601 18.408C56.0705 18.5679 55.9302 18.7776 55.8554 19.0132C55.7806 19.2487 55.7743 19.5005 55.8372 19.7395C56.2986 22.3335 56.7343 24.9378 57.0803 27.5497C57.1495 28.0588 56.9444 28.8683 56.5677 29.1178C56.3005 29.2566 56.0058 29.3352 55.7046 29.348C55.4033 29.3608 55.103 29.3074 54.8249 29.1916C52.4387 28.0486 50.1039 26.8012 47.7715 25.5538C47.5649 25.4177 47.3229 25.3441 47.075 25.3418C46.8271 25.3396 46.5838 25.4088 46.3747 25.5411C44.0449 26.7936 41.6921 28.0053 39.3368 29.2095C38.1091 29.8357 36.9301 29.1993 36.9481 27.9468ZM53.7664 25.3604C53.4281 23.2474 53.182 21.2872 52.7796 19.378C52.5515 18.2909 52.8847 17.5705 53.6484 16.8552C55.0581 15.534 56.4011 14.144 57.8902 12.6649C55.6168 12.3315 53.5331 12.0107 51.4597 11.7358C51.1246 11.7094 50.8035 11.5912 50.532 11.3943C50.2605 11.1975 50.0493 10.9297 49.9219 10.6208C49.1094 8.93041 48.2739 7.25024 47.4409 5.57262C47.3099 5.34176 47.1661 5.11825 47.0103 4.90311C46.162 6.62146 45.2829 8.17688 44.6191 9.8214C44.0552 11.2241 43.1402 11.7943 41.6691 11.9089C39.9134 12.0438 38.1731 12.3875 36.2458 12.6726C37.8528 14.2713 39.3214 15.7274 40.7874 17.1785C41.3333 17.7131 41.5947 18.2935 41.382 19.0623C41.2912 19.465 41.2211 19.8719 41.1719 20.2817C40.9156 21.9211 40.6593 23.558 40.3645 25.3731C42.215 24.4159 43.9194 23.6191 45.5315 22.6695C46.6336 22.0204 47.5537 22.056 48.643 22.6899C50.2653 23.614 51.9595 24.4159 53.7664 25.3604Z" fill="url(#paint2_linear_717_275)"/>
<path d="M13.3941 30.1973C13.6991 28.3822 13.9708 26.5569 14.3347 24.752C14.4501 24.1843 14.2732 23.8712 13.899 23.5199C12.6662 22.3641 11.4642 21.1778 10.2314 20.0246C9.68803 19.5155 9.26515 18.9707 9.5317 18.1917C9.78799 17.4688 10.3775 17.2371 11.1002 17.148C12.8098 16.9367 14.5116 16.6592 16.2262 16.4556C16.477 16.447 16.7198 16.3655 16.9243 16.2211C17.1289 16.0767 17.2863 15.8759 17.377 15.6435C18.11 14.0932 18.8507 12.5377 19.7093 11.0612C20.0356 10.5485 20.5414 10.174 21.1292 10.0099C21.8699 9.8342 22.3184 10.4503 22.6183 11.0969C23.3001 12.5683 24.0177 14.0219 24.6687 15.506C24.7637 15.7859 24.9435 16.0298 25.1834 16.2044C25.4234 16.3789 25.7118 16.4755 26.0091 16.481C27.7238 16.6541 29.423 16.9545 31.1351 17.1785C31.8322 17.2702 32.4704 17.5477 32.5166 18.2554C32.5477 18.8302 32.3653 19.3964 32.004 19.8464C30.807 21.1193 29.5179 22.3158 28.2184 23.4893C28.012 23.6581 27.8603 23.8837 27.7823 24.1377C27.7043 24.3918 27.7036 24.663 27.7802 24.9175C28.0928 26.506 28.3568 28.1047 28.6311 29.7008C28.7515 30.4136 28.772 31.1112 28.0698 31.5821C27.3675 32.0531 26.7447 31.7985 26.1014 31.4396C24.7097 30.6631 23.2821 29.9401 21.9161 29.1281C21.6845 28.9688 21.4096 28.8834 21.1279 28.8834C20.8463 28.8834 20.5713 28.9688 20.3398 29.1281C18.802 29.9766 17.2531 30.7963 15.6931 31.5872C14.4552 32.2007 13.3224 31.4701 13.3941 30.1973ZM16.8388 27.6516C18.0536 27.0228 19.107 26.5162 20.1168 25.9383C20.4253 25.7398 20.7854 25.6352 21.1529 25.6375C21.5204 25.6398 21.8792 25.7487 22.1851 25.951C23.1411 26.506 24.1253 27.0075 25.2402 27.6057C25.0506 26.4754 24.948 25.4953 24.7122 24.5509C24.4559 23.4664 24.7123 22.6671 25.5709 21.9365C26.3398 21.2771 26.9908 20.4676 27.7391 19.6759C26.5294 19.4977 25.3684 19.2864 24.1971 19.1667C23.8456 19.1477 23.5073 19.0273 23.2237 18.8202C22.9401 18.6131 22.7235 18.3283 22.6003 18.0008C22.1364 16.9825 21.6392 15.9642 21.0933 14.8034C20.4987 15.977 19.9656 16.9876 19.4761 18.0186C19.3442 18.3427 19.1234 18.6234 18.8389 18.8291C18.5544 19.0347 18.2175 19.157 17.8665 19.182C16.6876 19.3118 15.5137 19.5129 14.3911 19.6784C15.219 20.5618 15.9776 21.4197 16.7875 22.2241C17.3591 22.7867 17.6025 23.3722 17.4206 24.1869C17.1822 25.2535 17.0515 26.3507 16.8388 27.6516Z" fill="url(#paint3_linear_717_275)"/>
<path d="M65.4793 29.9983C65.7561 28.3996 66.0381 26.6456 66.3738 24.9069C66.4489 24.6523 66.4469 24.3814 66.3681 24.1279C66.2892 23.8744 66.137 23.6495 65.9304 23.4813C64.6771 22.3485 63.4802 21.1546 62.2525 19.9937C61.7399 19.5126 61.3452 19.0034 61.5862 18.2448C61.8271 17.4862 62.3884 17.2545 63.124 17.1629C64.8335 16.944 66.5327 16.6538 68.2499 16.4705C68.5169 16.46 68.7743 16.3692 68.988 16.2101C69.2018 16.0509 69.3618 15.831 69.4468 15.5795C70.1158 14.0699 70.8462 12.5883 71.5408 11.0889C71.8432 10.4397 72.3097 9.83129 73.035 10.0095C73.6228 10.1768 74.1276 10.5539 74.4523 11.0685C75.3109 12.5526 76.0516 14.1055 76.7821 15.6508C76.8749 15.8824 77.0341 16.0819 77.2401 16.2245C77.446 16.367 77.6896 16.4464 77.9406 16.4527C79.7141 16.6665 81.4954 16.8778 83.2459 17.2164C83.7585 17.3156 84.4198 17.7764 84.5633 18.2143C84.7068 18.6521 84.4428 19.4209 84.0891 19.7977C82.8743 21.0986 81.5544 22.3078 80.2447 23.5221C80.0582 23.6625 79.918 23.855 79.8422 24.0749C79.7664 24.2948 79.7584 24.5322 79.8192 24.7567C80.1575 26.4394 80.4676 28.1298 80.6522 29.8329C80.6951 30.4357 80.5126 31.033 80.1396 31.5105C79.6449 32.0858 78.9196 31.844 78.2917 31.5105C76.7539 30.6806 75.2161 29.8354 73.6347 29.0666C73.445 28.9868 73.2411 28.9457 73.035 28.9457C72.8289 28.9457 72.625 28.9868 72.4353 29.0666C70.8437 29.8685 69.3059 30.7799 67.7168 31.5945C66.4866 32.2334 65.4076 31.4952 65.4793 29.9983ZM66.5045 19.6577C67.2119 20.4443 67.804 21.2513 68.5549 21.8877C69.4391 22.6514 69.716 23.4661 69.4315 24.5862C69.1957 25.523 69.1034 26.4929 68.9189 27.6079C69.8569 27.0988 70.6899 26.75 71.4075 26.2409C72.5327 25.4364 73.5553 25.5281 74.6702 26.2409C75.4391 26.75 76.3079 27.114 77.3177 27.6436C77.0973 26.3071 76.9512 25.2073 76.7206 24.1279C76.6356 23.7891 76.6477 23.4333 76.7555 23.1009C76.8633 22.7685 77.0625 22.4726 77.3306 22.2467C78.1687 21.4295 78.958 20.5665 79.8218 19.6653C78.6197 19.4897 77.4331 19.2835 76.2336 19.1562C75.8992 19.1335 75.5779 19.0182 75.3061 18.8234C75.0343 18.6285 74.8229 18.362 74.6958 18.0539C74.1832 17.0076 73.6501 15.9741 73.0555 14.7979C72.4994 15.9715 71.997 16.9974 71.5177 18.0335C71.3982 18.3454 71.1914 18.6169 70.9216 18.8158C70.6519 19.0147 70.3305 19.1328 69.9953 19.1562C68.7881 19.2962 67.5963 19.5049 66.4917 19.6577H66.5045Z" fill="url(#paint4_linear_717_275)"/>
<path d="M79.0166 46.1941C79.2447 44.9213 79.5292 43.6204 79.6932 42.2992C79.7094 42.1128 79.6878 41.9251 79.6297 41.7472C79.5716 41.5692 79.4782 41.4046 79.3549 41.2631C78.522 40.4281 77.5609 39.7357 76.7689 38.8549C76.3692 38.3995 76.1513 37.8145 76.1563 37.2104C76.2102 36.4747 76.9073 36.1921 77.6352 36.1081C78.8372 35.9528 80.0393 35.7924 81.2234 35.5506C81.5978 35.4531 81.92 35.216 82.1229 34.8887C82.7047 33.8704 83.1251 32.7528 83.7556 31.7702C84.0952 31.2694 84.6015 30.9035 85.1857 30.7366C85.87 30.5686 86.3314 31.1185 86.6287 31.7549C87.0516 32.6434 87.5847 33.4885 87.9307 34.405C88.2767 35.3215 88.8636 35.6397 89.7735 35.7186C90.7612 35.7803 91.741 35.9328 92.7004 36.1743C93.1899 36.3092 93.8332 36.7216 93.9562 37.1391C94.0946 37.6049 93.8717 38.3457 93.5385 38.7454C92.8021 39.582 91.9934 40.3529 91.1216 41.0493C90.609 41.4846 90.5244 41.9505 90.6526 42.5563C90.9261 43.6663 91.1307 44.7919 91.2651 45.9268C91.2934 46.5024 91.1164 47.0694 90.7653 47.5281C90.3168 48.0729 89.6223 47.9456 89.0097 47.6096C88.0025 47.0571 86.9593 46.548 85.9879 45.965C85.4343 45.6366 84.9858 45.5933 84.4117 45.9421C83.3865 46.5684 82.3024 47.1361 81.2157 47.6681C80.0521 48.2256 78.9346 47.4848 79.0166 46.1941ZM87.7872 43.5899C87.1105 41.5279 87.3771 39.8503 89.389 38.6054C86.9952 38.7709 85.8419 37.4828 85.2601 35.4564C84.6911 36.3932 84.3758 37.3937 83.694 37.9003C83.0123 38.4068 81.941 38.4425 80.7543 38.7632C83.0943 39.8044 83.1968 41.5253 82.5228 43.6001C84.2861 42.2585 85.9649 42.0217 87.7872 43.5899Z" fill="url(#paint5_linear_717_275)"/>
<path d="M18.1252 37.8191C17.9162 38.1975 17.667 38.5525 17.3819 38.8781C16.5618 39.6775 15.7006 40.4386 14.8189 41.1692C14.6274 41.3038 14.4846 41.496 14.4117 41.7175C14.3387 41.9389 14.3396 42.1779 14.414 42.3988C14.7021 43.5379 14.9034 44.6969 15.0163 45.8661C15.0527 46.4673 14.8708 47.0617 14.5037 47.5411C14.0065 48.1114 13.2786 47.8721 12.6532 47.5259C11.628 46.9556 10.6028 46.365 9.53407 45.861C9.17677 45.716 8.77647 45.716 8.41918 45.861C7.29403 46.3905 6.21245 47.0065 5.12062 47.5997C4.50806 47.9332 3.8135 48.0579 3.36498 47.5131C3.01496 47.0531 2.83976 46.4851 2.87031 45.9093C3.0047 44.7744 3.20927 43.6488 3.48287 42.5388C3.61101 41.9304 3.52901 41.4671 3.01129 41.0343C2.18088 40.3393 1.42991 39.5527 0.630263 38.8221C0.117666 38.3435 -0.195014 37.7071 0.153552 37.1267C0.482291 36.6485 0.972225 36.3027 1.535 36.1517C2.62071 35.8912 3.72534 35.7159 4.83869 35.6273C5.47175 35.5662 5.77675 35.2658 6.02536 34.7261C6.47069 33.6717 6.99233 32.6507 7.58621 31.6712C7.86813 31.2308 8.49606 30.7548 8.96253 30.7573C9.42899 30.7599 10.062 31.2385 10.3414 31.6814C10.9847 32.6997 11.4204 33.8402 12.015 34.889C12.2217 35.2126 12.5456 35.445 12.9198 35.5382C14.1372 35.7927 15.3726 35.9353 16.6054 36.1135C17.4665 36.2459 17.9919 36.699 18.1252 37.8191ZM8.96509 35.4822C8.33204 37.6027 7.04285 38.6948 4.73617 38.6592C6.91983 39.8378 6.87113 41.6071 6.36622 43.608C8.16031 42.0806 9.83139 42.2003 11.6357 43.608C10.7694 41.4569 11.2308 39.8251 13.2555 38.6159C10.9155 38.7101 9.58533 37.6638 8.96509 35.4822Z" fill="url(#paint6_linear_717_275)"/>
</g>
<defs>
<linearGradient id="paint0_linear_717_275" x1="31.6411" y1="158.569" x2="105.596" y2="128.497" gradientUnits="userSpaceOnUse">
<stop stop-color="#7E317A"/>
<stop offset="0.510417" stop-color="#DB4469"/>
<stop offset="1" stop-color="#EFAA76" stop-opacity="0.92"/>
</linearGradient>
<linearGradient id="paint1_linear_717_275" x1="45.6788" y1="82.4651" x2="51.9403" y2="80.4829" gradientUnits="userSpaceOnUse">
<stop stop-color="#7E317A"/>
<stop offset="0.510417" stop-color="#DB4469"/>
<stop offset="1" stop-color="#EFAA76" stop-opacity="0.92"/>
</linearGradient>
<linearGradient id="paint2_linear_717_275" x1="39.1806" y1="61.0506" x2="76.4907" y2="45.2091" gradientUnits="userSpaceOnUse">
<stop stop-color="#7E317A"/>
<stop offset="0.510417" stop-color="#DB4469"/>
<stop offset="1" stop-color="#EFAA76" stop-opacity="0.92"/>
</linearGradient>
<linearGradient id="paint3_linear_717_275" x1="15.0788" y1="55.2895" x2="42.9425" y2="43.3517" gradientUnits="userSpaceOnUse">
<stop stop-color="#7E317A"/>
<stop offset="0.510417" stop-color="#DB4469"/>
<stop offset="1" stop-color="#EFAA76" stop-opacity="0.92"/>
</linearGradient>
<linearGradient id="paint4_linear_717_275" x1="67.1474" y1="55.3288" x2="95.035" y2="43.3816" gradientUnits="userSpaceOnUse">
<stop stop-color="#7E317A"/>
<stop offset="0.510417" stop-color="#DB4469"/>
<stop offset="1" stop-color="#EFAA76" stop-opacity="0.92"/>
</linearGradient>
<linearGradient id="paint5_linear_717_275" x1="80.5096" y1="66.3441" x2="102.17" y2="57.2195" gradientUnits="userSpaceOnUse">
<stop stop-color="#7E317A"/>
<stop offset="0.510417" stop-color="#DB4469"/>
<stop offset="1" stop-color="#EFAA76" stop-opacity="0.92"/>
</linearGradient>
<linearGradient id="paint6_linear_717_275" x1="4.42691" y1="66.2613" x2="26.2953" y2="56.8704" gradientUnits="userSpaceOnUse">
<stop stop-color="#7E317A"/>
<stop offset="0.510417" stop-color="#DB4469"/>
<stop offset="1" stop-color="#EFAA76" stop-opacity="0.92"/>
</linearGradient>
<clipPath id="clip0_717_275">
<rect width="94" height="94" fill="white"/>
</clipPath>
</defs>
</svg>
